<?xml version="1.0" encoding="UTF-8"?>
<svg xmlns="http://www.w3.org/2000/svg" xmlns:xlink="http://www.w3.org/1999/xlink" viewBox="0 0 48 48" width="48px" height="48px">
<g id="surface64729061">
<path style=" stroke:none;fill-rule:nonzero;fill:rgb(20%,20%,20%);fill-opacity:1;" d="M 35.484375 5.984375 C 34.875 5.984375 34.324219 6.355469 34.09375 6.921875 C 33.863281 7.488281 34 8.136719 34.4375 8.558594 L 36.878906 11 L 35.5 11 C 23.644531 11 14 20.644531 14 32.5 C 13.992188 33.039062 14.277344 33.542969 14.742188 33.816406 C 15.210938 34.089844 15.789062 34.089844 16.257812 33.816406 C 16.722656 33.542969 17.007812 33.039062 17 32.5 C 17 22.265625 25.265625 14 35.5 14 L 36.878906 14 L 34.441406 16.4375 C 34.046875 16.816406 33.890625 17.375 34.027344 17.898438 C 34.164062 18.425781 34.574219 18.835938 35.101562 18.972656 C 35.625 19.109375 36.183594 18.953125 36.5625 18.558594 L 41.433594 13.6875 C 41.804688 13.40625 42.019531 12.960938 42.019531 12.496094 C 42.015625 12.027344 41.796875 11.585938 41.425781 11.300781 L 36.5625 6.4375 C 36.277344 6.148438 35.890625 5.984375 35.484375 5.984375 Z M 12.5 6 C 8.929688 6 6 8.929688 6 12.5 L 6 35.5 C 6 39.070312 8.929688 42 12.5 42 L 35.5 42 C 39.070312 42 42 39.070312 42 35.5 L 42 27.5 C 42.007812 26.960938 41.722656 26.457031 41.257812 26.183594 C 40.789062 25.910156 40.210938 25.910156 39.742188 26.183594 C 39.277344 26.457031 38.992188 26.960938 39 27.5 L 39 35.5 C 39 37.449219 37.449219 39 35.5 39 L 12.5 39 C 10.550781 39 9 37.449219 9 35.5 L 9 12.5 C 9 10.550781 10.550781 9 12.5 9 L 20.5 9 C 21.039062 9.007812 21.542969 8.722656 21.816406 8.257812 C 22.089844 7.789062 22.089844 7.210938 21.816406 6.742188 C 21.542969 6.277344 21.039062 5.992188 20.5 6 Z M 12.5 6 "/>
</g>
</svg>
